<?xml version="1.0" standalone="no"?>
<!DOCTYPE svg PUBLIC "-//W3C//DTD SVG 20010904//EN"
 "http://www.w3.org/TR/2001/REC-SVG-20010904/DTD/svg10.dtd">
<svg version="1.0" xmlns="http://www.w3.org/2000/svg"
 width="188.000000pt" height="188.000000pt" viewBox="0 0 188.000000 188.000000"
 preserveAspectRatio="xMidYMid meet">
<metadata>
Created by potrace 1.11, written by Peter Selinger 2001-2013
</metadata>
<g transform="translate(0.000000,188.000000) scale(0.100000,-0.100000)"
fill="#000000" stroke="none">
<path d="M915 1719 c-9 -14 0 -22 18 -17 13 2 13 5 2 15 -10 9 -16 9 -20 2z"/>
<path d="M686 1520 c-67 -21 -107 -90 -109 -194 -2 -65 2 -79 42 -166 25 -52
60 -116 78 -143 18 -26 33 -55 33 -66 0 -31 23 -44 54 -30 48 22 50 12 53
-288 3 -238 6 -292 24 -373 20 -89 48 -162 67 -174 10 -6 47 150 61 259 6 44
13 132 15 195 l5 115 -13 -100 c-8 -55 -19 -145 -26 -200 -13 -110 -28 -196
-35 -203 -14 -14 -34 189 -37 378 l-3 145 58 0 c49 0 57 3 57 19 0 15 -3 16
-15 6 -8 -7 -36 -11 -68 -8 l-53 3 7 -50 c4 -27 8 -84 8 -125 1 -121 -17 -61
-29 101 -17 208 -17 252 -2 256 6 3 12 -3 12 -14 0 -11 3 -14 8 -6 4 6 32 13
62 14 l55 3 5 -79 c5 -74 6 -77 14 -42 5 22 6 61 3 87 -7 59 12 88 59 94 37 4
54 13 54 28 0 6 14 34 32 61 34 54 93 180 110 237 23 79 -15 205 -75 245 -53
35 -148 23 -184 -23 -58 -74 -67 -155 -30 -268 21 -64 22 -75 12 -151 -8 -62
-16 -86 -30 -98 -31 -23 -62 -18 -82 12 -24 36 -24 207 0 271 19 55 10 131
-24 192 -36 66 -109 99 -173 80z m529 -70 c17 -33 20 -70 5 -70 -5 0 -10 6
-10 13 0 7 -20 37 -45 66 -25 29 -45 55 -45 57 0 15 82 -42 95 -66z m-398 26
c15 -13 24 -28 20 -32 -4 -4 -22 6 -40 24 -37 37 -21 43 20 8z m-147 8 c0 -3
-11 -22 -25 -42 -14 -20 -25 -45 -25 -54 0 -10 -4 -18 -10 -18 -5 0 -9 -8 -8
-17 3 -45 -2 -77 -12 -67 -15 15 16 146 41 179 19 23 39 33 39 19z m368 -18
c-7 -8 -15 -12 -17 -11 -5 6 10 25 20 25 5 0 4 -6 -3 -14z m111 -20 c20 -21
37 -53 46 -87 23 -86 19 -127 -21 -203 -33 -65 -83 -136 -94 -136 -3 0 -6 18
-7 41 0 22 -16 97 -33 167 -29 113 -31 132 -21 170 9 31 21 48 44 62 43 26 48
26 86 -14z m-353 1 c45 -39 47 -107 9 -277 -8 -36 -18 -87 -23 -115 l-7 -50
-45 60 c-25 33 -45 62 -46 65 0 3 -8 22 -18 43 -39 89 -25 204 33 266 35 37
60 39 97 8z m205 -30 c-10 -9 -11 -8 -5 6 3 10 9 15 12 12 3 -3 0 -11 -7 -18z
m-126 -51 c8 -50 4 -76 -10 -79 -6 -1 -11 26 -13 61 -3 71 13 85 23 18z m390
-82 c-3 -23 -13 -48 -20 -54 -13 -11 -14 -8 -10 16 3 16 7 54 9 84 6 71 6 71
18 30 5 -19 7 -53 3 -76z m-242 -49 c36 -150 41 -191 28 -199 -7 -5 -11 1 -11
14 0 12 -11 60 -24 108 -26 91 -45 229 -28 202 5 -8 21 -64 35 -125z m-187
-98 c-9 -30 -16 -64 -16 -75 0 -12 -5 -24 -12 -28 -16 -10 -2 99 18 138 23 44
28 27 10 -35z m377 28 c-3 -9 -8 -14 -10 -11 -3 3 -2 9 2 15 9 16 15 13 8 -4z
m-34 -95 c-24 -43 -69 -90 -69 -73 0 6 7 16 15 23 9 7 14 19 11 27 -3 8 -2 12
3 8 5 -3 19 8 31 25 30 43 35 37 9 -10z m-441 -49 c50 -59 56 -88 9 -43 -36
35 -73 92 -59 92 5 0 28 -22 50 -49z m279 -53 c-18 -43 -69 -73 -98 -57 -22
11 -17 29 8 29 9 0 13 -6 9 -15 -3 -8 -1 -15 4 -15 12 0 56 60 65 89 4 15 10
20 17 13 6 -6 4 -22 -5 -44z m-197 -3 c0 -8 -4 -15 -9 -15 -5 0 -11 7 -15 15
-3 9 0 15 9 15 8 0 15 -7 15 -15z m185 -55 c-3 -5 -12 -10 -18 -10 -7 0 -6 4
3 10 19 12 23 12 15 0z m-135 -466 c0 -8 28 -205 36 -254 4 -23 2 -32 -4 -25
-29 28 -67 285 -43 285 6 0 11 -3 11 -6z"/>
<path d="M280 1469 c0 -5 5 -7 10 -4 6 3 10 8 10 11 0 2 -4 4 -10 4 -5 0 -10
-5 -10 -11z"/>
<path d="M1525 1470 c27 -12 43 -12 25 0 -8 5 -22 9 -30 9 -10 0 -8 -3 5 -9z"/>
<path d="M355 1460 c27 -12 43 -12 25 0 -8 5 -22 9 -30 9 -10 0 -8 -3 5 -9z"/>
<path d="M1464 1454 c-18 -14 -18 -14 6 -3 31 14 36 19 24 19 -6 0 -19 -7 -30
-16z"/>
<path d="M364 1385 c-17 -26 -37 -35 -28 -12 2 7 -4 13 -16 14 -12 1 -20 -4
-20 -13 0 -8 -11 -19 -25 -24 -35 -13 -31 -23 5 -15 40 9 38 -1 -2 -19 -18 -8
-27 -15 -20 -15 7 -1 22 4 33 9 10 6 19 7 19 2 0 -12 -34 -42 -48 -42 -6 0
-14 -4 -17 -10 -14 -23 26 -8 52 20 15 17 31 30 35 30 3 0 20 -12 37 -26 38
-32 41 -23 4 12 -14 13 -23 27 -19 31 3 4 12 1 18 -5 15 -15 28 -16 28 -2 0 6
-7 10 -15 10 -29 0 -15 19 18 23 l32 4 -32 1 c-34 2 -43 18 -21 40 7 7 9 12 5
12 -3 0 -14 -11 -23 -25z"/>
<path d="M1502 1378 c-12 -12 -22 -17 -22 -11 0 6 -8 14 -17 17 -17 7 -17 6
-1 -10 17 -17 16 -19 -12 -30 -38 -16 -40 -52 -5 -91 l25 -28 29 34 c27 30 51
35 51 10 0 -6 7 -17 15 -26 18 -17 37 -6 57 31 10 20 9 20 -14 -1 -30 -29 -32
-29 -52 2 -22 34 -13 64 17 59 16 -3 14 0 -8 10 -30 15 -30 15 -5 16 23 1 23
2 5 9 -12 5 -26 4 -34 -3 -11 -9 -13 -7 -7 12 9 28 6 28 -22 0z m-2 -38 c0 -5
-12 -17 -27 -25 -16 -9 -19 -13 -8 -10 49 17 58 18 53 5 -2 -7 -12 -14 -22
-16 -10 -1 -21 -6 -24 -10 -4 -4 1 -4 11 -1 22 8 22 -7 0 -28 -15 -16 -18 -15
-34 7 -28 35 -24 64 9 76 36 14 42 14 42 2z"/>
<path d="M210 1381 c0 -5 9 -7 20 -4 11 3 20 7 20 9 0 2 -9 4 -20 4 -11 0 -20
-4 -20 -9z"/>
<path d="M260 1376 c0 -2 7 -7 16 -10 8 -3 12 -2 9 4 -6 10 -25 14 -25 6z"/>
<path d="M201 1304 c0 -11 3 -14 6 -6 3 7 2 16 -1 19 -3 4 -6 -2 -5 -13z"/>
<path d="M436 1275 c-9 -26 -7 -32 5 -12 6 10 9 21 6 23 -2 3 -7 -2 -11 -11z"/>
<path d="M372 1244 c9 -9 21 -15 27 -13 6 2 -2 10 -17 17 -25 11 -25 11 -10
-4z"/>
<path d="M1710 1160 c-12 -23 -3 -25 23 -6 15 12 15 14 2 19 -9 4 -19 -2 -25
-13z"/>
<path d="M121 1146 l-24 -13 25 -5 c18 -3 24 0 24 14 0 10 0 18 -1 18 0 -1
-11 -7 -24 -14z"/>
<path d="M1516 1082 c-2 -4 10 -6 29 -4 27 3 34 0 40 -18 7 -22 -11 -80 -26
-80 -13 0 -20 18 -9 25 5 3 10 11 10 18 0 6 -11 0 -25 -15 -14 -15 -25 -32
-25 -37 0 -16 -44 -9 -66 11 -20 18 -23 18 -38 3 -10 -11 -16 -34 -16 -66 0
-45 -2 -49 -24 -49 -47 0 -59 -25 -53 -112 4 -65 3 -78 -10 -78 -8 0 -23 -10
-34 -22 -18 -22 -19 -22 -17 -3 2 36 -2 55 -12 55 -5 0 -10 -7 -10 -15 0 -24
-28 -17 -33 8 l-4 22 -2 -23 c0 -12 5 -37 12 -55 15 -35 3 -81 -27 -106 -9 -8
-16 -18 -16 -24 0 -6 13 1 28 16 27 25 33 27 85 21 51 -6 57 -4 82 20 17 17
37 26 58 26 32 0 57 15 57 34 0 5 -8 2 -18 -7 -24 -22 -30 -21 -91 7 -45 20
-49 25 -35 37 12 9 17 10 23 1 10 -17 67 -26 75 -13 5 7 -2 11 -16 11 -34 0
-56 16 -41 31 16 16 71 2 86 -22 6 -10 15 -19 20 -19 4 0 5 4 2 10 -3 5 12 21
34 34 50 32 66 59 51 86 -9 17 -6 21 24 34 63 26 67 65 13 113 -25 22 -26 22
-10 63 22 54 7 90 -36 90 -16 0 -32 -4 -35 -8z m-62 -133 c30 -35 33 -65 10
-94 -16 -19 -16 -19 -11 10 4 25 -15 85 -27 85 -2 0 -3 -19 -1 -42 2 -24 4
-55 4 -70 1 -24 3 -26 29 -16 34 12 76 -2 92 -32 9 -17 6 -25 -19 -50 -29 -30
-63 -38 -90 -21 -18 12 -5 31 22 31 12 0 29 5 37 11 11 7 1 8 -32 3 -47 -6
-47 -6 -47 22 0 16 -5 59 -11 96 -18 101 -3 123 44 67z m104 10 c3 -8 1 -11
-3 -7 -4 4 -14 0 -21 -10 -14 -18 -18 -5 -8 23 7 18 26 15 32 -6z m58 -54 c16
-24 16 -26 -6 -45 -27 -23 -48 -27 -31 -6 18 22 -32 54 -54 36 -21 -18 -10
-26 12 -9 17 12 17 12 1 -5 -11 -12 -23 -16 -35 -12 -16 7 -14 11 17 37 42 36
74 37 96 4z m-56 -55 c-12 -11 -27 -17 -33 -13 -5 3 1 12 14 19 36 20 45 17
19 -6z m-184 2 c6 -4 16 -17 23 -29 15 -29 -6 -104 -26 -96 -11 4 -11 8 -1 21
10 12 10 16 1 19 -7 3 -13 12 -13 21 0 30 -20 -9 -21 -43 -1 -24 -3 -20 -11
18 -15 71 9 115 48 89z m-142 -197 c3 -8 1 -15 -3 -15 -5 0 -11 7 -15 15 -3 8
-1 15 3 15 5 0 11 -7 15 -15z m100 -31 c9 -8 16 -22 16 -30 0 -21 -47 -37 -70
-24 -10 5 -29 10 -41 10 -17 0 -20 3 -12 11 8 8 22 8 49 0 48 -13 54 -13 54
-2 0 5 -19 12 -42 16 -39 7 -40 8 -23 21 25 18 50 18 69 -2z"/>
<path d="M1470 730 l-25 -8 28 -1 c15 -1 27 4 27 9 0 6 -1 10 -2 9 -2 -1 -14
-5 -28 -9z"/>
<path d="M270 1060 c-23 -23 -25 -48 -8 -85 10 -23 9 -29 -20 -55 -18 -16 -32
-36 -32 -44 0 -21 39 -56 63 -56 16 0 18 -5 12 -30 -8 -37 6 -57 53 -77 17 -7
32 -20 32 -28 0 -11 9 -7 31 12 17 16 35 28 40 27 5 -1 16 -2 24 -2 19 -2 19
-28 0 -36 -8 -3 -14 -2 -12 2 1 4 -2 7 -8 7 -5 0 -9 -3 -8 -7 2 -5 -2 -8 -7
-8 -6 0 -10 -5 -10 -11 0 -12 59 -3 74 11 5 5 15 6 22 3 28 -10 13 -22 -35
-29 -39 -5 -48 -10 -43 -22 4 -11 1 -14 -11 -9 -55 22 -53 22 -37 3 10 -13 23
-17 46 -13 25 4 37 0 55 -19 22 -23 29 -25 80 -19 53 6 58 5 83 -22 35 -37 33
-23 -3 28 -28 38 -29 42 -15 74 19 46 18 51 -7 24 l-20 -24 11 23 c14 28 7 52
-15 52 -12 0 -14 -8 -9 -40 7 -42 -4 -52 -26 -25 -9 11 -10 19 -1 28 7 10 7
17 0 24 -8 8 -7 20 5 44 20 40 20 45 1 29 -7 -6 -17 -32 -21 -56 -4 -27 -11
-43 -18 -41 -6 2 -10 13 -8 23 9 54 6 112 -7 127 -7 10 -26 17 -41 17 -24 0
-27 3 -23 23 4 19 3 20 -7 4 -6 -9 -9 -21 -6 -26 3 -4 -1 -17 -9 -27 -14 -17
-15 -13 -12 44 2 34 2 62 0 62 -8 0 -26 -57 -25 -80 1 -24 1 -25 -14 -5 -9 12
-11 21 -4 23 5 2 10 8 10 13 0 4 -8 5 -17 2 -24 -9 21 53 49 68 11 6 18 13 15
15 -6 6 -83 -34 -79 -41 1 -3 2 -8 1 -12 0 -5 -11 15 -24 42 -13 28 -24 45
-24 38 -1 -7 -8 -10 -16 -7 -8 4 -15 1 -15 -5 0 -6 7 -11 15 -11 14 0 35 -29
35 -49 0 -6 -4 -11 -10 -11 -5 0 -10 7 -10 16 0 9 -11 27 -25 40 -30 28 -32
55 -4 80 18 16 23 16 42 4 20 -12 21 -12 8 3 -18 22 -37 21 -61 -3z m40 -155
c30 -15 56 -52 46 -63 -3 -3 -16 4 -29 16 -25 23 -52 28 -62 12 -3 -5 3 -10
13 -10 11 0 26 -8 33 -17 13 -15 11 -16 -20 -10 -57 12 -79 45 -49 75 16 16
33 15 68 -3z m214 -96 c6 -26 5 -43 -7 -65 l-16 -29 3 30 c5 39 -10 56 -40 49
-27 -7 -31 5 -11 36 8 14 21 20 37 18 19 -2 27 -11 34 -39z m-107 -8 c7 -9 12
-25 13 -36 0 -17 -4 -16 -26 10 -16 20 -27 26 -30 18 -3 -7 -15 -13 -25 -13
-31 0 -12 -19 26 -26 20 -3 38 -11 42 -17 4 -6 -7 -7 -32 -3 -25 5 -35 4 -30
-3 12 -21 -16 -11 -41 14 -24 24 -25 28 -11 48 25 38 88 43 114 8z m53 -36 c0
-8 -4 -15 -10 -15 -5 0 -7 7 -4 15 4 8 8 15 10 15 2 0 4 -7 4 -15z m-85 -45
c3 -5 1 -10 -4 -10 -6 0 -11 5 -11 10 0 6 2 10 4 10 3 0 8 -4 11 -10z m185
-75 c14 -8 23 -15 20 -15 -3 -1 -15 -3 -28 -4 -12 -2 -28 -9 -35 -16 -10 -10
-6 -11 18 -5 44 11 59 11 65 0 3 -6 -16 -11 -46 -13 -38 -3 -54 1 -64 13 -13
15 -11 20 9 36 27 22 29 22 61 4z"/>
<path d="M1499 1033 c-5 -14 -9 -33 -7 -41 2 -9 8 3 14 26 13 47 9 56 -7 15z"/>
<path d="M351 974 c0 -11 3 -14 6 -6 3 7 2 16 -1 19 -3 4 -6 -2 -5 -13z"/>
<path d="M1793 910 c-6 -23 -14 -25 -33 -7 -12 10 -12 9 -1 -6 12 -15 11 -20
-4 -37 -10 -11 -15 -23 -11 -27 4 -5 12 0 17 10 6 9 20 17 32 18 12 0 16 3 10
6 -25 10 -12 23 25 24 31 2 32 3 9 6 -20 3 -27 9 -23 19 3 8 1 14 -5 14 -6 0
-13 -9 -16 -20z"/>
<path d="M4 903 c0 -12 8 -18 23 -18 28 0 29 4 6 21 -24 18 -29 17 -29 -3z"/>
<path d="M40 860 c-18 -12 -2 -12 25 0 13 6 15 9 5 9 -8 0 -22 -4 -30 -9z"/>
<path d="M65 840 c-16 -7 -14 -8 12 -7 17 1 29 5 26 10 -5 9 -12 8 -38 -3z"/>
<path d="M1778 833 c7 -3 16 -2 19 1 4 3 -2 6 -13 5 -11 0 -14 -3 -6 -6z"/>
<path d="M897 803 c-15 -16 -19 -16 -27 -3 -7 12 -9 10 -8 -7 1 -11 7 -19 14
-16 6 2 14 -5 17 -16 8 -33 64 -29 77 5 19 48 -35 75 -73 37z m23 -13 c-6 -11
-15 -18 -21 -14 -6 4 -6 11 2 20 17 21 31 17 19 -6z m50 4 c0 -18 -24 -44 -40
-44 -24 0 -25 8 -3 32 15 17 43 25 43 12z"/>
<path d="M621 760 c29 -46 29 -45 29 -32 0 6 -12 24 -26 39 l-26 28 23 -35z"/>
<path d="M1222 767 c-12 -13 -22 -27 -22 -32 0 -5 7 1 16 13 9 13 26 22 42 22
21 0 24 2 12 10 -21 14 -24 13 -48 -13z"/>
<path d="M1281 750 c1 -8 5 -26 9 -40 l8 -25 1 25 c0 14 -4 32 -9 40 -9 13
-10 13 -9 0z"/>
<path d="M77 644 c-16 -8 -35 -13 -43 -10 -16 6 -18 -3 -4 -24 5 -8 10 -10 10
-4 0 6 17 19 39 28 31 14 45 16 76 7 25 -7 35 -7 28 0 -18 18 -77 20 -106 3z"/>
<path d="M1644 645 c-18 -14 -18 -14 4 -8 30 7 28 1 -10 -27 -25 -18 -30 -19
-25 -6 4 10 3 15 -3 11 -6 -3 -10 -12 -10 -20 0 -8 -10 -23 -22 -35 l-22 -20
29 0 c19 0 40 -11 61 -31 35 -34 73 -41 100 -18 29 24 78 103 66 107 -6 2 -27
17 -48 33 -48 38 -60 37 -14 -1 19 -16 30 -30 23 -30 -6 0 -18 -3 -27 -6 -11
-4 -16 0 -16 12 0 16 -2 16 -16 -4 -8 -12 -20 -22 -26 -22 -7 0 -6 6 2 15 10
12 10 15 -2 15 -11 0 -14 7 -10 25 5 28 -5 32 -34 10z m146 -68 c0 -6 -18 -31
-39 -55 -39 -43 -40 -43 -65 -26 -31 20 -32 24 -5 24 11 0 17 -4 14 -10 -8
-12 5 -13 25 0 11 7 9 11 -12 19 -14 5 -35 7 -46 4 -11 -2 -23 0 -26 6 -4 6 8
13 29 17 26 5 41 2 54 -10 22 -20 32 -21 25 -1 -4 8 -10 13 -14 10 -5 -3 -11
-1 -15 5 -7 11 28 28 58 29 9 1 17 -5 17 -12z m-131 0 c-10 -9 -59 -17 -59 -9
0 4 14 9 32 10 18 2 30 1 27 -1z"/>
<path d="M103 606 c-55 -12 -84 -29 -43 -25 66 6 105 -9 64 -25 -9 -4 -13 -2
-8 5 4 7 1 10 -7 7 -8 -3 -13 -11 -11 -17 2 -9 -3 -9 -20 0 -21 11 -22 11 -9
-5 8 -10 28 -24 44 -32 27 -15 32 -14 73 8 38 20 47 21 66 9 19 -11 18 -8 -4
13 -15 14 -30 26 -34 26 -3 0 -15 11 -26 25 -11 14 -22 24 -26 24 -4 -1 -30
-7 -59 -13z m67 -16 c0 -5 -5 -10 -11 -10 -5 0 -7 5 -4 10 3 6 8 10 11 10 2 0
4 -4 4 -10z m16 -31 c3 -6 1 -16 -5 -22 -8 -8 -11 -8 -11 2 0 10 -5 10 -24 -2
-13 -9 -27 -13 -30 -10 -6 6 42 43 56 43 4 0 10 -5 14 -11z"/>
</g>
</svg>
